<?xml version="1.0" encoding="utf-8"?>
<!-- Generator: Adobe Illustrator 23.0.0, SVG Export Plug-In . SVG Version: 6.00 Build 0)  -->
<svg version="1.1" id="Camada_1" xmlns="http://www.w3.org/2000/svg" xmlns:xlink="http://www.w3.org/1999/xlink" x="0px" y="0px"
	 viewBox="0 0 26 24" style="enable-background:new 0 0 26 24;" xml:space="preserve">
<style type="text/css">
	.st0{fill:#FFFFFF;}
</style>
<g>
	<path class="st0" d="M17.1,6.7c-0.6,0-1-0.4-1-1v-3h-6v3c0,0.6-0.4,1-1,1s-1-0.4-1-1v-3c0-1.1,0.9-2,2-2h6c1.1,0,2,0.9,2,2v3
		C18.1,6.3,17.7,6.7,17.1,6.7z"/>
	<path class="st0" d="M21.1,4.7h-16c-1.1,0-2,0.9-2,2v13c0,1.7,1.3,3,3,3h14c1.7,0,3-1.3,3-3v-13C23.1,5.6,22.3,4.7,21.1,4.7z
		 M21.1,19.7c0,0.6-0.4,1-1,1h-14c-0.6,0-1-0.4-1-1v-13h16V19.7z"/>
</g>
</svg>
