<?xml version="1.0" encoding="utf-8"?>
<!-- Generator: Adobe Illustrator 23.0.0, SVG Export Plug-In . SVG Version: 6.00 Build 0)  -->
<svg version="1.1" id="Camada_1" xmlns="http://www.w3.org/2000/svg" xmlns:xlink="http://www.w3.org/1999/xlink" x="0px" y="0px"
	 viewBox="0 0 26 24" style="enable-background:new 0 0 26 24;" xml:space="preserve">
<style type="text/css">
	.st0{fill:#FFFFFF;}
</style>
<path class="st0" d="M22.1,3.5c-1.3-1.3-3-2-4.8-1.9c-1.6,0-3.2,0.6-4.3,1.8C10.4,0.9,6.4,1,3.9,3.5c-2.8,2.7-2.5,7.3,0.9,10.8
	l6.8,6.6c0.4,0.4,0.9,0.6,1.4,0.6c0.5,0,1-0.2,1.4-0.5l0.2-0.2l0.6-0.6c0.6-0.6,1.4-1.4,2.5-2.4l2.4-2.4l1.1-1.1
	C24.6,10.8,25,6.2,22.1,3.5z M19.8,12.9l-0.3,0.2l-0.8,0.8l-2.4,2.4c-1,1-1.8,1.8-2.4,2.4L13,19.5l-6.8-6.7c-2.6-2.7-2.9-6-0.9-7.9
	c1.8-1.8,4.6-1.8,6.4,0c0,0,0,0,0,0L11.8,5c0.1,0.1,0.2,0.2,0.3,0.3L13,6.2l0.9-0.9L14.2,5l0.1-0.1c1.8-1.8,4.6-1.8,6.4,0
	c0,0,0,0,0,0C22.7,6.8,22.4,10.2,19.8,12.9z"/>
</svg>
