<?xml version="1.0" encoding="utf-8"?>
<!-- Generator: Adobe Illustrator 23.0.0, SVG Export Plug-In . SVG Version: 6.00 Build 0)  -->
<svg version="1.1" id="Camada_1" xmlns="http://www.w3.org/2000/svg" xmlns:xlink="http://www.w3.org/1999/xlink" x="0px" y="0px"
	 viewBox="0 0 26 24" style="enable-background:new 0 0 26 24;" xml:space="preserve">
<style type="text/css">
	.st0{fill:#FFFFFF;}
</style>
<path class="st0" d="M14.4,1.5L14.4,1.5c0-0.5,0.1-0.8,0.4-1.1C15,0.1,15.3,0,15.7,0c0.4,0,0.7,0.1,1,0.4c0.3,0.2,0.5,0.6,0.5,1
	c0,0.4-0.1,0.7-0.4,1c-0.3,0.3-0.6,0.4-1,0.4l-0.2,0.1l0.1,0.1l-0.1,0.4l-0.2,1.3c0.1,0.1,0.1,0.1,0.1,0.2l-0.2,0.8
	c-0.1,0.1-0.1,0.2-0.2,0.2l-0.1,0.3c-0.1,0.4-0.2,0.8-0.3,1s-0.1,0.5-0.2,0.6V8c-0.1,0.3-0.1,0.5-0.1,0.6c0,0.2-0.1,0.4-0.3,0.8
	c-0.1,0.2-0.1,0.6,0,1l0.1,0.1c0,0.2,0.1,0.3,0.2,0.6s0.2,0.4,0.2,0.6c0.1,1.1,0,2-0.2,2.7l0.2,0.5c0.6,0.3,0.8,0.7,0.6,1l0.4,0.2
	c0.6,0.3,1.1,0.6,1.4,0.8c0.3,0.2,0.5,0.5,0.8,0.8c0.2,0.1,0.4,0.1,0.5,0.2l0.2,0.1c1.1,0.7,2.2,1.7,3.4,2.7l0.3,0.2V21l-0.1,0.2
	l0.2,0.2h0.1c0.2,0.1,0.3,0.2,0.3,0.2h0.1c0.1,0,0.1,0,0.2-0.1l0.2-0.1c0.1-0.1,0.2-0.2,0.3-0.2h0.3c0.1,0,0.1,0,0,0.1l-0.3,0.2
	L23,21.8h0.6l0.6,0.1c0.2-0.1,0.3-0.1,0.4-0.2l0.4-0.2c0.2-0.1,0.3,0,0.5,0.2h0.1c0.1,0.1,0,0.1-0.1,0.2l-1,0.9
	c-0.3,0.2-0.5,0.3-0.7,0.4l-1,0.7c-0.1,0.1-0.1,0.1-0.2,0l-0.2-0.3l-0.2-0.3L22,23l-0.2-0.3l-0.2-0.2l-0.2-0.2L21,22
	c-0.1,0-0.2,0-0.3-0.1l-1-0.8c-0.2,0-0.3-0.1-0.6-0.2c-0.8-0.7-1.3-1.1-1.6-1.3L17,19.3l-1-0.2c-0.3-0.1-0.7-0.2-1.3-0.5l-0.6-0.3
	c-0.4-0.2-0.7-0.3-0.9-0.3L13,17.8c-0.2-0.1-0.4-0.1-0.5-0.2l-0.2-0.2c-0.1,0-0.2,0-0.3,0.1l-1.6,0.8l-2,0.9c-0.5,0.4-1,0.8-1.5,1
	L6,20.7l-1.4,1c-0.1,0.1-0.2,0.1-0.3,0l-0.2,0.2c-0.2,0.1-0.3,0.1-0.3,0.1l-0.3,0.2v0.2H3.4l-0.2,0.2c-0.1,0.2-0.2,0.3-0.3,0.4
	c-0.1,0-0.2,0.1-0.2,0.1c0,0.1-0.1,0.1-0.1,0.1l-0.2,0.2l-0.2,0.2l-0.4,0l-0.5,0.1L1,23.5c-0.3,0.1-0.5,0-0.6-0.1
	c-0.2-0.1-0.3-0.3-0.4-0.6c-0.1-0.2-0.1-0.3,0.2-0.4l0.1-0.1c0.1-0.1,0.1-0.1,0.2-0.1H1L1.6,22l0.3-0.1c0-0.1,0-0.2,0.1-0.2
	s0.1-0.1,0.2-0.1v-0.1c-0.1-0.1-0.1-0.2-0.1-0.3c-0.1-0.1-0.1-0.2,0-0.2s0.1-0.1,0.1-0.1h0l0.1,0.2c0.1,0.3,0.1,0.3,0.2,0.2l0.1-0.2
	C2.7,21.1,2.8,21,2.9,21L3,21.2L3.2,21L3.1,21c0-0.1,0-0.1,0.1-0.1l0.3-0.3c0.3-0.3,0.6-0.6,1-0.9c0.7-0.6,1.5-1,2.4-1.4
	c0.3-0.3,0.6-0.4,0.9-0.4c0.2-0.4,0.5-0.8,1-1.2c0.4-0.3,0.6-0.5,0.8-0.6c0.1-0.2,0.2-0.3,0.4-0.3H10l0.2-0.2
	c0.1-0.1,0.2-0.1,0.2-0.2v-0.4c0-0.3,0-0.5,0.1-0.6s0.2-0.2,0.4-0.2l0.3-0.3c-0.1-0.2-0.2-0.5-0.2-0.7H11c-0.1-0.2-0.2-0.3-0.2-0.5
	c-0.2-0.3-0.3-0.5-0.3-0.6h-0.2c-0.1,0.2-0.2,0.3-0.4,0.3l-0.1,0.2c-0.2,0.4-0.4,0.7-0.6,0.8c-0.2,0.2-0.5,0.4-0.9,0.7
	c-0.3,0.3-0.5,0.6-0.6,0.9c-0.1,0.2-0.1,0.3,0,0.5l-0.1,0.2h0.1c0,0.1,0,0.2,0.1,0.2h0.1C8,15.8,8.1,15.9,8.1,16
	C8.1,16,8,16.1,7.8,16S7.6,16,7.5,15.9c-0.1-0.1-0.1-0.1-0.2-0.1L7,16c-0.1,0.2-0.2,0.2-0.3,0.2s-0.1-0.1-0.1-0.1L6.7,16
	c0.1-0.1,0.1-0.2,0-0.2L6.1,16C6,16.1,6,16.1,5.9,16c-0.1-0.1-0.1-0.1,0-0.2l0.4-0.2c0-0.1,0-0.1-0.1-0.1c-0.2,0.1-0.4,0.1-0.6,0.1
	l-0.4-0.1l-0.1-0.1c0-0.1,0-0.1,0.1-0.1c0.2,0.1,0.5,0,0.8-0.1l0.6-0.2l0.6-0.7l0.1-0.2c0.2-0.4,0.4-0.8,0.7-1.2
	c0.2-0.3,0.5-0.6,0.8-0.8l0.1-0.3c0.1-0.2,0.2-0.4,0.3-0.6c0.1-0.2,0.2-0.4,0.4-0.6l0.2-0.3c0.2-0.3,0.5-0.5,0.7-0.5l0.2-0.2
	c0.1-0.1,0.1-0.1,0.1-0.2L11,9.3l-0.1-0.1c-0.3-0.3-0.5-0.5-0.5-0.7c-0.1-0.4,0.1-0.7,0.4-1c0.3-0.3,0.6-0.4,0.9-0.4
	s0.5,0.1,0.7,0.3l0.2,0.2c0.1,0,0.1,0,0.1,0.1l0.3,0.2v0.2C13,8.2,13,8.3,13,8.3c0.1-0.2,0.3-0.3,0.5-0.6l0.4-1.3
	c0-0.2,0.1-0.4,0.2-0.6l0.2-0.2V5.4l0.2-1h0.2l0.2-1c0.1-0.2,0.1-0.3,0-0.6l-0.3-0.8L14.4,1.5z"/>
</svg>
