<?xml version="1.0" encoding="utf-8"?>
<!-- Generator: Adobe Illustrator 23.0.0, SVG Export Plug-In . SVG Version: 6.00 Build 0)  -->
<svg version="1.1" id="Camada_2" xmlns="http://www.w3.org/2000/svg" xmlns:xlink="http://www.w3.org/1999/xlink" x="0px" y="0px"
	 viewBox="0 0 425.2 425.2" style="enable-background:new 0 0 425.2 425.2;" xml:space="preserve">
<style type="text/css">
	.st0{fill:none;stroke:#000000;stroke-width:12;stroke-miterlimit:10;}
	.st1{fill:none;stroke:#000000;stroke-width:11.9977;stroke-miterlimit:10;}
	.st2{stroke:#000000;stroke-width:0.25;stroke-miterlimit:10;}
</style>
<path class="st0" d="M87,344.9c0,0,14.3-97.4,83.7-124.9"/>
<path class="st1" d="M255.5,220c69.2,27.7,83.4,125.4,83.4,125.4"/>
<path class="st1" d="M170.8,220c0,0,37.1,26.2,84.8,0"/>
<path class="st2" d="M160.3,222.5l7.8-7.7c0,0,4.6-3,8.7,3.2c4.1,6.3-5.8,6.2-5.8,6.2L160.3,222.5z"/>
<path class="st2" d="M245,222.5l7.8-7.7c0,0,4.6-3,8.7,3.2c4.1,6.3-5.8,6.2-5.8,6.2L245,222.5z"/>
<circle cx="212.8" cy="146.1" r="65.7"/>
</svg>
