<?xml version="1.0" encoding="utf-8"?>
<!-- Generator: Adobe Illustrator 23.0.0, SVG Export Plug-In . SVG Version: 6.00 Build 0)  -->
<svg version="1.1" xmlns="http://www.w3.org/2000/svg" xmlns:xlink="http://www.w3.org/1999/xlink" x="0px" y="0px"
	 viewBox="0 0 425.2 425.2" style="enable-background:new 0 0 425.2 425.2;" xml:space="preserve">
<style type="text/css">
	.st0{display:none;}
	.st1{display:inline;fill:none;stroke:#000000;stroke-width:12;stroke-miterlimit:10;}
	.st2{display:inline;fill:none;stroke:#000000;stroke-width:11.9977;stroke-miterlimit:10;}
	.st3{display:inline;stroke:#000000;stroke-width:0.25;stroke-miterlimit:10;}
	.st4{fill:none;stroke:#FFFFFF;stroke-width:37;stroke-miterlimit:10;}
	.st5{fill:#FFFFFF;}
</style>
<g id="Camada_2" class="st0">
	<path class="st1" d="M87,344.9c0,0,14.3-97.4,83.7-124.9"/>
	<path class="st2" d="M255.5,220c69.2,27.7,83.4,125.4,83.4,125.4"/>
	<path class="st2" d="M170.8,220c0,0,37.1,26.2,84.8,0"/>
	<path class="st3" d="M160.3,222.5l7.8-7.7c0,0,4.6-3,8.7,3.2c4.1,6.3-5.8,6.2-5.8,6.2L160.3,222.5z"/>
	<path class="st3" d="M245,222.5l7.8-7.7c0,0,4.6-3,8.7,3.2c4.1,6.3-5.8,6.2-5.8,6.2L245,222.5z"/>
</g>
<g id="Camada_3">
	<path class="st4" d="M99.4,364.4c0,0,115.6-387.8,221.4,0"/>
	<circle class="st5" cx="215.1" cy="75.6" r="65.7"/>
</g>
</svg>
